<svg width="36" height="36" viewBox="0 0 36 36" fill="none" xmlns="http://www.w3.org/2000/svg">
<circle cx="18" cy="18" r="18" fill="#15141F"/>
<g clip-path="url(#clip0_10189_99822)">
<path d="M27.9958 12.4743L23.3341 7.8125L21.7783 9.36276L24.2521 11.8586C23.9113 12.0137 23.6006 12.2278 23.3341 12.4908C22.8207 13.0227 22.501 13.7117 22.4262 14.4471C22.3513 15.1825 22.5257 15.9218 22.9213 16.5463C23.3169 17.1707 23.9108 17.6442 24.6077 17.8907C25.3046 18.1372 26.0641 18.1425 26.7644 17.9057V24.4255C26.7644 24.79 26.6196 25.1396 26.3619 25.3973C26.1041 25.6551 25.7546 25.7999 25.3901 25.7999C25.0256 25.7999 24.676 25.6551 24.4183 25.3973C24.1605 25.1396 24.0157 24.79 24.0157 24.4255V22.5015C24.0157 21.3351 23.5524 20.2164 22.7276 19.3917C21.9029 18.5669 20.7842 18.1036 19.6178 18.1036H19.0681V8.20831H9.17285V27.9988H19.0681V20.3025H19.6178C19.9066 20.3025 20.1926 20.3594 20.4593 20.4699C20.7261 20.5804 20.9685 20.7424 21.1727 20.9466C21.3769 21.1508 21.5389 21.3932 21.6494 21.66C21.7599 21.9267 21.8168 22.2127 21.8168 22.5015V24.4255C21.8169 25.3732 22.1934 26.282 22.8635 26.952C23.5336 27.6221 24.4424 27.9985 25.3901 27.9985C26.3377 27.9985 27.2465 27.6221 27.9167 26.952C28.5868 26.282 28.9633 25.3732 28.9634 24.4255V14.8051C28.9626 13.9306 28.6146 13.0922 27.9958 12.4743ZM16.8692 25.7999H11.3718V10.4073H16.8692V25.7999ZM26.4401 15.5858C26.2341 15.7905 25.9554 15.9055 25.6649 15.9055C25.3745 15.9055 25.0958 15.7905 24.8898 15.5858C24.7645 15.4903 24.6612 15.3691 24.5868 15.2303C24.5124 15.0914 24.4687 14.9382 24.4587 14.7811C24.4486 14.6239 24.4725 14.4664 24.5286 14.3192C24.5848 14.172 24.6719 14.0386 24.784 13.9281C24.8962 13.8175 25.0308 13.7323 25.1788 13.6783C25.3267 13.6243 25.4846 13.6026 25.6416 13.6149C25.7986 13.6272 25.9512 13.6731 26.0889 13.7494C26.2267 13.8258 26.3464 13.9308 26.4401 14.0575C26.6382 14.2625 26.749 14.5365 26.749 14.8216C26.749 15.1068 26.6382 15.3808 26.4401 15.5858Z" fill="#5A5971"/>
<rect x="11.3911" y="10.3359" width="5.64431" height="4.45206" fill="#38F56E"/>
<rect width="5.64431" height="10.9139" transform="matrix(1 0 0 -1 11.3909 25.6992)" fill="#3C3B4D"/>
</g>
<defs>
<clipPath id="clip0_10189_99822">
<rect width="21" height="21" fill="white" transform="translate(10 7)"/>
</clipPath>
</defs>
</svg>
