<svg width="96" height="56" viewBox="0 0 96 56" fill="none" xmlns="http://www.w3.org/2000/svg">
<path d="M50.1658 5.55569L64.4187 13.7846C66.1204 14.7671 67.1687 16.5828 67.1687 18.5477V35.0055C67.1687 36.9705 66.1204 38.7862 64.4187 39.7687L50.1658 47.9976C48.4641 48.9801 46.3675 48.9801 44.6658 47.9976L30.4129 39.7687C28.7112 38.7862 27.6629 36.9705 27.6629 35.0055V18.5477C27.6629 16.5828 28.7112 14.7671 30.4129 13.7846L44.6658 5.55569C46.3675 4.57321 48.4641 4.57321 50.1658 5.55569Z" stroke="white"/>
<path d="M28.1622 15.4887L47.6164 26.6048L47.5161 49.0107L28.0619 37.8946L28.1622 15.4887Z" fill="#D9D9D9" fill-opacity="0.14"/>
<line x1="62.8953" y1="35.8471" x2="76.8953" y2="43.8471" stroke="white" stroke-dasharray="2 2"/>
<line x1="82.7827" y1="47.5307" x2="95.3889" y2="54.7343" stroke="white" stroke-dasharray="2 2"/>
<line x1="1.10744" y1="0.565878" x2="13.7136" y2="7.76941" stroke="white" stroke-dasharray="2 2"/>
<line x1="19.9045" y1="10.8525" x2="24.9045" y2="13.8525" stroke="white" stroke-dasharray="2 2"/>
<path d="M78.9028 45.0036L83.8525 42.2812L88.8023 45.0036L83.8525 47.7259L78.9028 45.0036Z" fill="#36FF6E"/>
<path d="M79.0861 44.8847L83.9391 47.6577L83.9141 53.247L79.0611 50.474L79.0861 44.8847Z" fill="#36FF6E"/>
<path d="M88.7422 44.8847L83.8892 47.6577L83.9143 53.247L88.7672 50.474L88.7422 44.8847Z" fill="#15141F"/>
<path d="M28.0618 15.489L47.4157 4.19922L66.7697 15.489L47.4157 26.7788L28.0618 15.489Z" fill="#D9D9D9" fill-opacity="0.12"/>
<path d="M66.87 15.4887L47.4158 26.6048L47.5161 49.0107L66.9703 37.8946L66.87 15.4887Z" fill="#D9D9D9" fill-opacity="0.2"/>
<path d="M39.3518 22.3415L47.416 17.9062L55.4801 22.3415L47.416 26.7768L39.3518 22.3415Z" fill="#36FF6E"/>
<path d="M39.6504 22.1458L47.5569 26.6635L47.5162 35.7697L39.6096 31.2519L39.6504 22.1458Z" fill="#36FF6E"/>
<path d="M55.3821 22.1458L47.4756 26.6635L47.5163 35.7697L55.4229 31.2519L55.3821 22.1458Z" fill="#15141F"/>
<path d="M11.9028 6.00359L16.8525 3.28125L21.8023 6.00359L16.8525 8.72593L11.9028 6.00359Z" fill="#36FF6E"/>
<path d="M12.0861 5.88472L16.9391 8.6577L16.9141 14.247L12.0611 11.474L12.0861 5.88472Z" fill="#36FF6E"/>
<path d="M21.7422 5.88472L16.8892 8.6577L16.9143 14.247L21.7672 11.474L21.7422 5.88472Z" fill="black"/>
</svg>
