<svg width="24" height="24" viewBox="0 0 24 24" fill="none" xmlns="http://www.w3.org/2000/svg">
  <rect x="0.5" y="0.5" width="23" height="23" rx="3.5" fill="#F3F7F7" />
  <path d="M6.12158 8.30836L12.011 4.98047L17.9004 8.30836L12.011 11.6363L6.12158 8.30836Z" fill="#36FF6E" />
  <path fill-rule="evenodd" clip-rule="evenodd"
    d="M6.12158 8.30836L12.011 11.6363L17.9004 8.30836L12.011 4.98047L6.12158 8.30836ZM7.71995 8.30836L12.011 10.7331L16.3021 8.30836L12.011 5.88365L7.71995 8.30836Z"
    fill="black" />
  <path d="M5.85936 9.07031L11.6337 12.3698L11.6039 19.0202L5.82959 15.7207L5.85936 9.07031Z" fill="black" />
  <path d="M18.1408 9.07031L12.3665 12.3698L12.3963 19.0202L18.1706 15.7207L18.1408 9.07031Z" fill="black" />
  <rect x="0.5" y="0.5" width="23" height="23" rx="3.5" stroke="#DEE4E9" />
</svg>