<svg width="16" height="16" viewBox="0 0 16 16" fill="none" xmlns="http://www.w3.org/2000/svg">
<path d="M4.67254 14.3933C4.60548 14.3662 4.54038 14.332 4.47107 14.3133C3.6951 14.1039 3.16187 13.4466 3.15472 12.6398C3.14268 11.2809 3.14902 9.92181 3.15001 8.56279C3.15025 8.23572 3.3154 8.03853 3.57323 8.04304C3.82779 8.04751 4.00284 8.2528 4.00361 8.57106C4.00673 9.84514 4.0039 11.1193 4.00544 12.3933C4.00641 13.1977 4.32219 13.5144 5.11859 13.5145C7.04035 13.5148 8.96211 13.515 10.8839 13.5144C11.6354 13.5142 11.9633 13.1858 11.9647 12.4251C11.9671 11.1722 11.964 9.91937 11.9677 8.66652C11.9681 8.54196 11.9557 8.37125 12.0269 8.30322C12.1499 8.18565 12.3367 8.06196 12.4916 8.06829C12.7026 8.07693 12.824 8.25893 12.8227 8.49925C12.818 9.42295 12.8213 10.3467 12.8214 11.2704C12.8214 11.6951 12.8249 12.1198 12.8201 12.5445C12.8097 13.4565 12.3159 14.0874 11.4365 14.3234C11.3876 14.3365 11.344 14.3695 11.2979 14.3933C9.08948 14.3933 6.881 14.3933 4.67254 14.3933Z" fill="black"/>
<path d="M7.89667 2.31874C7.82486 2.4248 7.76807 2.54595 7.67903 2.63472C5.73211 4.57584 3.78175 6.51354 1.83158 8.45141C1.56467 8.71664 1.45307 8.72368 1.22137 8.49712C0.98625 8.26722 0.985386 8.15208 1.21727 7.91157C1.23937 7.88866 1.26243 7.86666 1.285 7.84421C3.37084 5.7718 5.45655 3.69925 7.54262 1.62707C7.86612 1.30573 8.10519 1.30651 8.43078 1.62995C10.5243 3.70975 12.6177 5.78967 14.7105 7.87018C14.991 8.14904 14.9903 8.2532 14.7476 8.5017C14.5489 8.7052 14.3707 8.699 14.1788 8.49512C14.0043 8.30968 13.8196 8.13391 13.6389 7.95431C11.8471 6.17327 10.0545 4.39309 8.26595 2.60885C8.18475 2.52784 8.14003 2.41026 8.07831 2.3097C8.01777 2.31272 7.95723 2.31573 7.89667 2.31874Z" fill="black"/>
</svg>
