<svg width="38" height="38" viewBox="0 0 38 38" fill="none" xmlns="http://www.w3.org/2000/svg">
  <path
    d="M23.7351 23.414C23.7764 23.4429 23.8169 23.4751 23.8532 23.5131L28.5322 28.1912C28.8469 28.506 28.8519 29.0338 28.5297 29.356C28.4535 29.433 28.3629 29.4942 28.263 29.5361C28.1631 29.578 28.0559 29.5997 27.9476 29.6C27.8393 29.6003 27.7319 29.5792 27.6318 29.5379C27.5317 29.4966 27.4407 29.4359 27.3641 29.3593L22.6851 24.6804C22.6489 24.6442 22.6163 24.6046 22.5877 24.5622C21.1117 25.7764 19.259 26.4389 17.3478 26.4358C12.7853 26.4358 9.08691 22.7374 9.08691 18.1749C9.08691 13.6125 12.7853 9.91406 17.3478 9.91406C21.9103 9.91406 25.6087 13.6125 25.6087 18.1749C25.6087 20.1633 24.9065 21.9881 23.7351 23.414ZM17.3478 24.7836C19.1005 24.7836 20.7815 24.0874 22.0208 22.848C23.2602 21.6086 23.9565 19.9277 23.9565 18.1749C23.9565 16.4222 23.2602 14.7412 22.0208 13.5019C20.7815 12.2625 19.1005 11.5662 17.3478 11.5662C15.595 11.5662 13.9141 12.2625 12.6747 13.5019C11.4354 14.7412 10.7391 16.4222 10.7391 18.1749C10.7391 19.9277 11.4354 21.6086 12.6747 22.848C13.9141 24.0874 15.595 24.7836 17.3478 24.7836Z"
    fill="black" />
</svg>