<svg width="39" height="40" viewBox="0 0 39 40" fill="none" xmlns="http://www.w3.org/2000/svg">
  <rect x="0.5" y="1" width="38" height="38" rx="7.5" fill="#F3F7F7" />
  <path
    d="M27.1432 13.4258C27.1432 12.3212 26.2478 11.4297 25.1432 11.4297H14.8574C13.7529 11.4297 12.8574 12.3251 12.8574 13.4297L12.8575 26.5725C12.8575 27.677 13.7529 28.5725 14.8575 28.5725H22.4096C22.5516 28.5724 22.6921 28.5444 22.8231 28.4899C22.9542 28.4355 23.0732 28.3557 23.1733 28.2551L26.8296 24.5803C27.0304 24.3784 27.1432 24.1053 27.1432 23.8205C27.1432 22.8907 27.1432 16.6872 27.1432 13.4258ZM15.7145 14.6785C15.7145 14.4621 15.8899 14.2867 16.1063 14.2867H23.8944C24.1108 14.2867 24.2862 14.4621 24.2862 14.6785V15.3236C24.2862 15.54 24.1108 15.7154 23.8944 15.7154H16.1063C15.8899 15.7154 15.7145 15.54 15.7145 15.3236V14.6785ZM15.7145 17.5357C15.7145 17.3193 15.8899 17.1439 16.1063 17.1439H22.4657C22.6821 17.1439 22.8575 17.3193 22.8575 17.5357V18.1809C22.8575 18.3973 22.6821 18.5727 22.4657 18.5727H16.1063C15.8899 18.5727 15.7145 18.3973 15.7145 18.1809V17.5357ZM20.0003 21.0379C20.0003 21.2543 19.8249 21.4297 19.6085 21.4297H16.1063C15.8899 21.4297 15.7145 21.2543 15.7145 21.0379V20.3928C15.7145 20.1764 15.8899 20.001 16.1063 20.001H19.6087C19.8251 20.001 20.0005 20.1764 20.0005 20.3928L20.0003 21.0379ZM25.6524 23.7053L22.8319 26.5258C22.5669 26.7908 22.1135 26.6031 22.1135 26.2283C22.1135 25.4813 22.1135 24.7342 22.1135 23.9871C22.1135 23.4348 22.5613 22.9871 23.1135 22.9871H25.3548C25.7298 22.9869 25.9174 23.4402 25.6524 23.7053Z"
    fill="black" />
  <path
    d="M15.7144 14.677C15.7144 14.4605 15.8897 14.2852 16.1062 14.2852H23.8942C24.1106 14.2852 24.286 14.4605 24.286 14.677V15.3221C24.286 15.5385 24.1106 15.7139 23.8942 15.7139H16.1062C15.8897 15.7139 15.7144 15.5385 15.7144 15.3221V14.677ZM15.7144 17.5342C15.7144 17.3178 15.8897 17.1424 16.1062 17.1424H22.4655C22.6819 17.1424 22.8573 17.3178 22.8573 17.5342V18.1793C22.8573 18.3957 22.6819 18.5711 22.4655 18.5711H16.1062C15.8897 18.5711 15.7144 18.3957 15.7144 18.1793V17.5342ZM20.0001 21.0363C20.0001 21.2527 19.8247 21.4281 19.6083 21.4281H16.1062C15.8897 21.4281 15.7144 21.2527 15.7144 21.0363V20.3912C15.7144 20.1748 15.8897 19.9994 16.1062 19.9994H19.6085C19.8249 19.9994 20.0003 20.1748 20.0003 20.3912L20.0001 21.0363Z"
    fill="#36FF6E" />
  <rect x="0.5" y="1" width="38" height="38" rx="7.5" stroke="#DEE4E9" />
</svg>